Coordinates
version=1
nRows=9
nColumns=63
inDegrees=yes

Units are S.I. units (second, meters, Newtons, ...)
If the header above contains a line with 'inDegrees', this indicates whether rotational values are in degrees (yes) or radians (no).

endheader
time	pelvis_tilt	pelvis_list	pelvis_rotation	pelvis_tx	pelvis_ty	pelvis_tz	hip_flexion_r	hip_adduction_r	hip_rotation_r	knee_angle_r	knee_angle_r_beta	ankle_angle_r	subtalar_angle_r	mtp_angle_r	hip_flexion_l	hip_adduction_l	hip_rotation_l	knee_angle_l	knee_angle_l_beta	ankle_angle_l	subtalar_angle_l	mtp_angle_l	L5_S1_Flex_Ext	L5_S1_Lat_Bending	L5_S1_axial_rotation	L4_L5_Flex_Ext	L4_L5_Lat_Bending	L4_L5_axial_rotation	L3_L4_Flex_Ext	L3_L4_Lat_Bending	L3_L4_axial_rotation	L2_L3_Flex_Ext	L2_L3_Lat_Bending	L2_L3_axial_rotation	L1_L2_Flex_Ext	L1_L2_Lat_Bending	L1_L2_axial_rotation	L1_T12_Flex_Ext	L1_T12_Lat_Bending	L1_T12_axial_rotation	Abs_r3	Abs_r2	Abs_r1	Abs_t1	Abs_t2	neck_flexion	neck_bending	neck_rotation	arm_flex_r	arm_add_r	arm_rot_r	elbow_flex_r	pro_sup_r	wrist_flex_r	wrist_dev_r	arm_flex_l	arm_add_l	arm_rot_l	elbow_flex_l	pro_sup_l	wrist_flex_l	wrist_dev_l
3.559322	0.950330	-2.116592	91.860086	0.319065	1.042037	0.443895	0.776416	-5.264105	-7.568032	9.836043	0.171671	31.555604	9.379857	0.000000	1.178828	4.356903	9.720613	6.901812	0.120459	26.067520	-12.732290	0.000000	-0.237551	-0.527628	-0.575774	-0.441157	-0.701746	-0.611760	-0.390273	-1.282876	-0.611760	-0.271498	-1.282876	-0.503802	-0.220590	-1.075940	-0.467816	-0.135737	-0.817296	-0.431830	-1.696806	-5.968638	-3.202282	0.000000	0.000000	20.055915	-1.990921	-19.005299	9.749782	-9.957260	103.580864	13.219582	14.865298	-7.823246	-14.423249	-5.148776	-20.367069	33.470105	23.247553	85.031263	-10.465585	0.164860
3.576271	0.953693	-2.080486	91.873349	0.319022	1.041927	0.444059	0.739259	-5.264729	-7.640666	9.837193	0.171691	31.557805	9.451569	0.000000	1.261549	4.368976	9.645346	7.146174	0.124724	26.107255	-12.688033	0.000000	-0.241182	-0.531403	-0.585956	-0.447899	-0.706767	-0.622578	-0.396238	-1.292054	-0.622578	-0.275647	-1.292054	-0.512711	-0.223961	-1.083638	-0.476089	-0.137811	-0.823144	-0.439467	-1.722738	-6.011342	-3.258910	0.000000	0.000000	19.694019	-1.702946	-18.552054	10.078208	-9.862505	104.912453	13.087809	14.161445	-7.944858	-14.667409	-5.439020	-20.517727	32.793954	23.145449	85.035327	-10.415713	0.071881
3.593220	0.984353	-2.042827	91.875172	0.318897	1.041802	0.444187	0.705799	-5.245295	-7.721702	9.843451	0.171801	31.580258	9.551318	0.000000	1.358748	4.356606	9.510748	7.421457	0.129529	26.192207	-12.577298	0.000000	-0.242928	-0.530256	-0.587894	-0.451142	-0.705240	-0.624637	-0.399107	-1.289264	-0.624637	-0.277643	-1.289264	-0.514407	-0.225583	-1.081297	-0.477663	-0.138809	-0.821366	-0.440920	-1.735213	-5.998358	-3.269687	0.000000	0.000000	19.300514	-1.446623	-18.012732	10.228944	-9.853475	104.915933	13.208143	14.732449	-8.067774	-14.612625	-5.637926	-20.647644	32.610916	23.002005	85.089284	-10.539890	0.127426
3.610169	1.047967	-2.002458	91.926463	0.318628	1.041678	0.444287	0.653631	-5.192040	-7.813671	9.828974	0.171548	31.588868	9.599992	0.000000	1.480920	4.313464	9.316653	7.749567	0.135255	26.358798	-12.321803	0.000000	-0.244251	-0.523125	-0.596732	-0.453598	-0.695757	-0.634028	-0.401280	-1.271927	-0.634028	-0.279154	-1.271927	-0.522140	-0.226811	-1.066757	-0.484845	-0.139565	-0.810321	-0.447549	-1.744660	-5.917699	-3.318844	0.000000	0.000000	18.942154	-1.189780	-17.314927	10.226825	-9.922558	103.685167	13.544799	16.547181	-8.221525	-14.285276	-5.734351	-20.746281	32.959060	22.800625	85.084444	-10.847541	0.292999
3.627119	1.122947	-1.966985	91.968714	0.318321	1.041564	0.444268	0.607690	-5.132076	-7.913276	9.827073	0.171515	31.602460	9.661296	0.000000	1.589559	4.253668	9.090132	8.050001	0.140499	26.532183	-12.029398	0.000000	-0.241382	-0.513501	-0.595896	-0.448270	-0.682956	-0.633139	-0.396566	-1.248525	-0.633139	-0.275875	-1.248525	-0.521409	-0.224147	-1.047130	-0.484165	-0.137926	-0.795412	-0.446922	-1.724167	-5.808820	-3.314194	0.000000	0.000000	18.561856	-0.967705	-16.579899	10.075285	-10.050506	101.595037	14.036270	19.137256	-8.327548	-13.825334	-5.735116	-20.806887	33.721215	22.533381	85.160474	-11.202149	0.560715
3.644068	1.217085	-1.934134	92.011733	0.317970	1.041480	0.444174	0.564911	-5.052993	-7.991435	9.835368	0.171660	31.593734	9.676619	0.000000	1.701812	4.161454	8.708519	8.361029	0.145927	26.776853	-11.526882	0.000000	-0.236302	-0.499660	-0.584215	-0.438837	-0.664548	-0.620728	-0.388221	-1.214874	-0.620728	-0.270070	-1.214874	-0.511188	-0.219430	-1.018907	-0.474674	-0.135023	-0.773974	-0.438161	-1.687883	-5.652258	-3.249226	0.000000	0.000000	18.197340	-0.793214	-15.778130	9.812975	-10.249603	98.821121	14.636604	22.222673	-8.461266	-13.270943	-5.526117	-20.843252	35.429153	22.104951	84.964834	-11.694550	0.827976
3.661017	1.311918	-1.910080	92.068281	0.317589	1.041400	0.443962	0.525090	-4.974283	-8.077547	9.853355	0.171973	31.574545	9.662948	0.000000	1.807959	4.064203	8.300169	8.657266	0.151098	27.041281	-10.991198	0.000000	-0.228410	-0.484487	-0.566600	-0.424180	-0.644367	-0.602013	-0.375255	-1.177981	-0.602013	-0.261050	-1.177981	-0.495775	-0.212102	-0.987965	-0.460363	-0.130513	-0.750470	-0.424950	-1.631510	-5.480609	-3.151261	0.000000	0.000000	17.867463	-0.648873	-14.936377	9.416399	-10.491092	95.262949	15.344319	25.969291	-8.608295	-12.591935	-5.283530	-20.843833	37.088433	21.703931	84.780211	-12.134576	1.217721
3.677966	1.402841	-1.900170	92.119834	0.317211	1.041317	0.443655	0.502408	-4.898496	-8.135370	9.887472	0.172569	31.552029	9.593332	0.000000	1.915670	3.964370	7.789762	8.944000	0.156102	27.342978	-10.350471	0.000000	-0.217810	-0.468454	-0.536893	-0.404495	-0.623044	-0.570449	-0.357840	-1.138999	-0.570449	-0.248935	-1.138999	-0.469781	-0.202258	-0.955272	-0.436225	-0.124457	-0.725636	-0.402670	-1.555795	-5.299247	-2.986037	0.000000	0.000000	17.579449	-0.558645	-14.096056	8.873553	-10.775589	90.811905	16.168002	30.447538	-8.772680	-11.771300	-4.997684	-20.808047	38.637854	21.338410	84.582523	-12.514427	1.681860
3.694915	1.487099	-1.898730	92.161815	0.316841	1.041246	0.443260	0.489642	-4.826586	-8.138323	9.926576	0.173251	31.529495	9.461382	0.000000	2.009854	3.866349	7.228905	9.204223	0.160644	27.637450	-9.681406	0.000000	-0.205424	-0.451737	-0.498708	-0.381492	-0.600810	-0.529877	-0.337490	-1.098353	-0.529877	-0.234779	-1.098353	-0.436369	-0.190756	-0.921182	-0.405200	-0.117379	-0.699741	-0.374031	-1.467320	-5.110140	-2.773662	0.000000	0.000000	17.319598	-0.525173	-13.268790	8.221386	-11.087562	85.703830	17.077296	35.506639	-8.992385	-10.799296	-4.699487	-20.724762	39.912712	21.037095	84.386610	-12.766123	2.179042
